<mxfile host="app.diagrams.net" modified="2024-06-20T13:45:28.877Z" agent="Mozilla/5.0 (X11; Linux x86_64; rv:109.0) Gecko/20100101 Firefox/115.0" etag="Ig_g5AUiiS2eYlKLKlU_" version="24.5.5" type="github">
  <diagram id="C5RBs43oDa-KdzZeNtuy" name="Page-1">
    <mxGraphModel dx="1195" dy="656" grid="1" gridSize="10" guides="1" tooltips="1" connect="1" arrows="1" fold="1" page="1" pageScale="1" pageWidth="827" pageHeight="1169" math="0" shadow="0">
      <root>
        <mxCell id="WIyWlLk6GJQsqaUBKTNV-0" />
        <mxCell id="WIyWlLk6GJQsqaUBKTNV-1" parent="WIyWlLk6GJQsqaUBKTNV-0" />
        <mxCell id="5gWi30kBgXAaWxRzhCxk-0" value="UI: Address DB" style="whiteSpace=wrap;html=1;aspect=fixed;" vertex="1" parent="WIyWlLk6GJQsqaUBKTNV-1">
          <mxGeometry x="60" y="390" width="100" height="100" as="geometry" />
        </mxCell>
        <mxCell id="5gWi30kBgXAaWxRzhCxk-19" style="edgeStyle=orthogonalEdgeStyle;rounded=0;orthogonalLoop=1;jettySize=auto;html=1;entryX=0;entryY=0.25;entryDx=0;entryDy=0;" edge="1" parent="WIyWlLk6GJQsqaUBKTNV-1" source="5gWi30kBgXAaWxRzhCxk-1" target="5gWi30kBgXAaWxRzhCxk-11">
          <mxGeometry relative="1" as="geometry" />
        </mxCell>
        <mxCell id="5gWi30kBgXAaWxRzhCxk-1" value="Address" style="shape=cylinder3;whiteSpace=wrap;html=1;boundedLbl=1;backgroundOutline=1;size=15;" vertex="1" parent="WIyWlLk6GJQsqaUBKTNV-1">
          <mxGeometry x="80" y="170" width="60" height="80" as="geometry" />
        </mxCell>
        <mxCell id="5gWi30kBgXAaWxRzhCxk-2" value="" style="endArrow=classic;startArrow=classic;html=1;rounded=0;entryX=0.5;entryY=1;entryDx=0;entryDy=0;entryPerimeter=0;exitX=0.5;exitY=0;exitDx=0;exitDy=0;" edge="1" parent="WIyWlLk6GJQsqaUBKTNV-1" source="5gWi30kBgXAaWxRzhCxk-0" target="5gWi30kBgXAaWxRzhCxk-1">
          <mxGeometry width="50" height="50" relative="1" as="geometry">
            <mxPoint x="390" y="440" as="sourcePoint" />
            <mxPoint x="440" y="390" as="targetPoint" />
          </mxGeometry>
        </mxCell>
        <mxCell id="5gWi30kBgXAaWxRzhCxk-10" value="&lt;div&gt;CRUD&lt;/div&gt;" style="edgeLabel;html=1;align=center;verticalAlign=middle;resizable=0;points=[];" vertex="1" connectable="0" parent="5gWi30kBgXAaWxRzhCxk-2">
          <mxGeometry x="0.2143" y="-4" relative="1" as="geometry">
            <mxPoint as="offset" />
          </mxGeometry>
        </mxCell>
        <mxCell id="5gWi30kBgXAaWxRzhCxk-22" style="edgeStyle=orthogonalEdgeStyle;rounded=0;orthogonalLoop=1;jettySize=auto;html=1;entryX=0;entryY=0.25;entryDx=0;entryDy=0;exitX=1;exitY=0;exitDx=0;exitDy=52.5;exitPerimeter=0;" edge="1" parent="WIyWlLk6GJQsqaUBKTNV-1" source="5gWi30kBgXAaWxRzhCxk-4" target="5gWi30kBgXAaWxRzhCxk-20">
          <mxGeometry relative="1" as="geometry">
            <Array as="points">
              <mxPoint x="325" y="223" />
              <mxPoint x="325" y="415" />
            </Array>
          </mxGeometry>
        </mxCell>
        <mxCell id="5gWi30kBgXAaWxRzhCxk-4" value="Offer: Data" style="shape=cylinder3;whiteSpace=wrap;html=1;boundedLbl=1;backgroundOutline=1;size=15;" vertex="1" parent="WIyWlLk6GJQsqaUBKTNV-1">
          <mxGeometry x="225" y="170" width="70" height="80" as="geometry" />
        </mxCell>
        <mxCell id="5gWi30kBgXAaWxRzhCxk-5" value="Settings" style="shape=cylinder3;whiteSpace=wrap;html=1;boundedLbl=1;backgroundOutline=1;size=15;" vertex="1" parent="WIyWlLk6GJQsqaUBKTNV-1">
          <mxGeometry x="80" y="40" width="60" height="80" as="geometry" />
        </mxCell>
        <mxCell id="5gWi30kBgXAaWxRzhCxk-6" value="Offer: Files" style="shape=cylinder3;whiteSpace=wrap;html=1;boundedLbl=1;backgroundOutline=1;size=15;" vertex="1" parent="WIyWlLk6GJQsqaUBKTNV-1">
          <mxGeometry x="379" y="170" width="70" height="80" as="geometry" />
        </mxCell>
        <mxCell id="5gWi30kBgXAaWxRzhCxk-8" value="" style="endArrow=classic;html=1;rounded=0;exitX=0;exitY=0.5;exitDx=0;exitDy=0;exitPerimeter=0;entryX=1;entryY=0.5;entryDx=0;entryDy=0;entryPerimeter=0;" edge="1" parent="WIyWlLk6GJQsqaUBKTNV-1" source="5gWi30kBgXAaWxRzhCxk-6" target="5gWi30kBgXAaWxRzhCxk-4">
          <mxGeometry width="50" height="50" relative="1" as="geometry">
            <mxPoint x="390" y="440" as="sourcePoint" />
            <mxPoint x="440" y="390" as="targetPoint" />
          </mxGeometry>
        </mxCell>
        <mxCell id="5gWi30kBgXAaWxRzhCxk-9" value="1-n" style="edgeLabel;html=1;align=center;verticalAlign=middle;resizable=0;points=[];" vertex="1" connectable="0" parent="5gWi30kBgXAaWxRzhCxk-8">
          <mxGeometry x="0.1111" y="-3" relative="1" as="geometry">
            <mxPoint as="offset" />
          </mxGeometry>
        </mxCell>
        <mxCell id="5gWi30kBgXAaWxRzhCxk-11" value="UI: Offer- Data" style="whiteSpace=wrap;html=1;aspect=fixed;" vertex="1" parent="WIyWlLk6GJQsqaUBKTNV-1">
          <mxGeometry x="210" y="390" width="100" height="100" as="geometry" />
        </mxCell>
        <mxCell id="5gWi30kBgXAaWxRzhCxk-20" value="&lt;div&gt;UI: Generate offer doc&lt;/div&gt;&lt;div&gt;&lt;br&gt;&lt;/div&gt;&lt;div&gt;button: no input&lt;br&gt;&lt;/div&gt;" style="html=1;dashed=0;whiteSpace=wrap;" vertex="1" parent="WIyWlLk6GJQsqaUBKTNV-1">
          <mxGeometry x="354" y="390" width="120" height="100" as="geometry" />
        </mxCell>
        <mxCell id="5gWi30kBgXAaWxRzhCxk-23" style="edgeStyle=orthogonalEdgeStyle;rounded=0;orthogonalLoop=1;jettySize=auto;html=1;entryX=0.75;entryY=1;entryDx=0;entryDy=0;" edge="1" parent="WIyWlLk6GJQsqaUBKTNV-1" source="5gWi30kBgXAaWxRzhCxk-20" target="5gWi30kBgXAaWxRzhCxk-37">
          <mxGeometry relative="1" as="geometry" />
        </mxCell>
        <mxCell id="5gWi30kBgXAaWxRzhCxk-33" value="Trigger" style="edgeLabel;html=1;align=center;verticalAlign=middle;resizable=0;points=[];" vertex="1" connectable="0" parent="5gWi30kBgXAaWxRzhCxk-23">
          <mxGeometry x="0.1714" y="2" relative="1" as="geometry">
            <mxPoint x="21" y="13" as="offset" />
          </mxGeometry>
        </mxCell>
        <mxCell id="5gWi30kBgXAaWxRzhCxk-41" value="" style="edgeStyle=orthogonalEdgeStyle;rounded=0;orthogonalLoop=1;jettySize=auto;html=1;exitX=0.145;exitY=0;exitDx=0;exitDy=4.35;exitPerimeter=0;entryX=0;entryY=0.5;entryDx=0;entryDy=0;" edge="1" parent="WIyWlLk6GJQsqaUBKTNV-1" source="5gWi30kBgXAaWxRzhCxk-25" target="5gWi30kBgXAaWxRzhCxk-40">
          <mxGeometry relative="1" as="geometry" />
        </mxCell>
        <mxCell id="5gWi30kBgXAaWxRzhCxk-25" value="Order: Data" style="shape=cylinder3;whiteSpace=wrap;html=1;boundedLbl=1;backgroundOutline=1;size=15;" vertex="1" parent="WIyWlLk6GJQsqaUBKTNV-1">
          <mxGeometry x="500" y="170" width="70" height="80" as="geometry" />
        </mxCell>
        <mxCell id="5gWi30kBgXAaWxRzhCxk-27" style="edgeStyle=orthogonalEdgeStyle;rounded=0;orthogonalLoop=1;jettySize=auto;html=1;exitX=1;exitY=0;exitDx=0;exitDy=0;entryX=0;entryY=0;entryDx=0;entryDy=52.5;entryPerimeter=0;" edge="1" parent="WIyWlLk6GJQsqaUBKTNV-1" source="5gWi30kBgXAaWxRzhCxk-20" target="5gWi30kBgXAaWxRzhCxk-25">
          <mxGeometry relative="1" as="geometry" />
        </mxCell>
        <mxCell id="5gWi30kBgXAaWxRzhCxk-32" value="CR" style="edgeLabel;html=1;align=center;verticalAlign=middle;resizable=0;points=[];" vertex="1" connectable="0" parent="5gWi30kBgXAaWxRzhCxk-27">
          <mxGeometry x="-0.0801" y="4" relative="1" as="geometry">
            <mxPoint as="offset" />
          </mxGeometry>
        </mxCell>
        <mxCell id="5gWi30kBgXAaWxRzhCxk-29" value="UI: Order" style="html=1;dashed=0;whiteSpace=wrap;" vertex="1" parent="WIyWlLk6GJQsqaUBKTNV-1">
          <mxGeometry x="534" y="390" width="100" height="100" as="geometry" />
        </mxCell>
        <mxCell id="5gWi30kBgXAaWxRzhCxk-30" value="" style="endArrow=classic;startArrow=classic;html=1;rounded=0;entryX=0.5;entryY=1;entryDx=0;entryDy=0;entryPerimeter=0;exitX=0;exitY=0;exitDx=0;exitDy=0;" edge="1" parent="WIyWlLk6GJQsqaUBKTNV-1" source="5gWi30kBgXAaWxRzhCxk-29" target="5gWi30kBgXAaWxRzhCxk-25">
          <mxGeometry width="50" height="50" relative="1" as="geometry">
            <mxPoint x="390" y="440" as="sourcePoint" />
            <mxPoint x="440" y="390" as="targetPoint" />
          </mxGeometry>
        </mxCell>
        <mxCell id="5gWi30kBgXAaWxRzhCxk-31" value="UD" style="edgeLabel;html=1;align=center;verticalAlign=middle;resizable=0;points=[];" vertex="1" connectable="0" parent="5gWi30kBgXAaWxRzhCxk-30">
          <mxGeometry x="0.2004" y="-4" relative="1" as="geometry">
            <mxPoint as="offset" />
          </mxGeometry>
        </mxCell>
        <mxCell id="5gWi30kBgXAaWxRzhCxk-45" value="" style="edgeStyle=orthogonalEdgeStyle;rounded=0;orthogonalLoop=1;jettySize=auto;html=1;" edge="1" parent="WIyWlLk6GJQsqaUBKTNV-1" source="5gWi30kBgXAaWxRzhCxk-34" target="5gWi30kBgXAaWxRzhCxk-25">
          <mxGeometry relative="1" as="geometry" />
        </mxCell>
        <mxCell id="5gWi30kBgXAaWxRzhCxk-46" value="1-1" style="edgeLabel;html=1;align=center;verticalAlign=middle;resizable=0;points=[];" vertex="1" connectable="0" parent="5gWi30kBgXAaWxRzhCxk-45">
          <mxGeometry x="-0.4722" y="-2" relative="1" as="geometry">
            <mxPoint as="offset" />
          </mxGeometry>
        </mxCell>
        <mxCell id="5gWi30kBgXAaWxRzhCxk-34" value="Invoice: Files" style="shape=cylinder3;whiteSpace=wrap;html=1;boundedLbl=1;backgroundOutline=1;size=15;" vertex="1" parent="WIyWlLk6GJQsqaUBKTNV-1">
          <mxGeometry x="680" y="170" width="70" height="80" as="geometry" />
        </mxCell>
        <mxCell id="5gWi30kBgXAaWxRzhCxk-35" value="" style="endArrow=classic;startArrow=classic;html=1;rounded=0;entryX=0.5;entryY=1;entryDx=0;entryDy=0;entryPerimeter=0;exitX=0.5;exitY=0;exitDx=0;exitDy=0;" edge="1" parent="WIyWlLk6GJQsqaUBKTNV-1" source="5gWi30kBgXAaWxRzhCxk-11" target="5gWi30kBgXAaWxRzhCxk-4">
          <mxGeometry width="50" height="50" relative="1" as="geometry">
            <mxPoint x="390" y="440" as="sourcePoint" />
            <mxPoint x="440" y="390" as="targetPoint" />
          </mxGeometry>
        </mxCell>
        <mxCell id="5gWi30kBgXAaWxRzhCxk-36" value="CRU" style="edgeLabel;html=1;align=center;verticalAlign=middle;resizable=0;points=[];" vertex="1" connectable="0" parent="5gWi30kBgXAaWxRzhCxk-35">
          <mxGeometry x="0.0143" y="1" relative="1" as="geometry">
            <mxPoint as="offset" />
          </mxGeometry>
        </mxCell>
        <mxCell id="5gWi30kBgXAaWxRzhCxk-37" value="Generator:&lt;br&gt;Offer" style="rounded=1;whiteSpace=wrap;html=1;" vertex="1" parent="WIyWlLk6GJQsqaUBKTNV-1">
          <mxGeometry x="280" y="80" width="120" height="60" as="geometry" />
        </mxCell>
        <mxCell id="5gWi30kBgXAaWxRzhCxk-38" style="edgeStyle=orthogonalEdgeStyle;rounded=0;orthogonalLoop=1;jettySize=auto;html=1;entryX=-0.008;entryY=0.65;entryDx=0;entryDy=0;entryPerimeter=0;exitX=0.343;exitY=0.038;exitDx=0;exitDy=0;exitPerimeter=0;" edge="1" parent="WIyWlLk6GJQsqaUBKTNV-1" source="5gWi30kBgXAaWxRzhCxk-4" target="5gWi30kBgXAaWxRzhCxk-37">
          <mxGeometry relative="1" as="geometry" />
        </mxCell>
        <mxCell id="5gWi30kBgXAaWxRzhCxk-39" style="edgeStyle=orthogonalEdgeStyle;rounded=0;orthogonalLoop=1;jettySize=auto;html=1;entryX=0.771;entryY=0;entryDx=0;entryDy=0;entryPerimeter=0;exitX=1;exitY=0.5;exitDx=0;exitDy=0;" edge="1" parent="WIyWlLk6GJQsqaUBKTNV-1" source="5gWi30kBgXAaWxRzhCxk-37" target="5gWi30kBgXAaWxRzhCxk-6">
          <mxGeometry relative="1" as="geometry" />
        </mxCell>
        <mxCell id="5gWi30kBgXAaWxRzhCxk-48" value="CR" style="edgeLabel;html=1;align=center;verticalAlign=middle;resizable=0;points=[];" vertex="1" connectable="0" parent="5gWi30kBgXAaWxRzhCxk-39">
          <mxGeometry x="0.5484" relative="1" as="geometry">
            <mxPoint as="offset" />
          </mxGeometry>
        </mxCell>
        <mxCell id="5gWi30kBgXAaWxRzhCxk-40" value="&lt;div&gt;Generator:&lt;/div&gt;&lt;div&gt;Invoice&lt;/div&gt;" style="rounded=1;whiteSpace=wrap;html=1;" vertex="1" parent="WIyWlLk6GJQsqaUBKTNV-1">
          <mxGeometry x="534" y="70" width="120" height="60" as="geometry" />
        </mxCell>
        <mxCell id="5gWi30kBgXAaWxRzhCxk-42" style="edgeStyle=orthogonalEdgeStyle;rounded=0;orthogonalLoop=1;jettySize=auto;html=1;entryX=0.855;entryY=0;entryDx=0;entryDy=4.35;entryPerimeter=0;exitX=0.993;exitY=0.463;exitDx=0;exitDy=0;exitPerimeter=0;" edge="1" parent="WIyWlLk6GJQsqaUBKTNV-1" source="5gWi30kBgXAaWxRzhCxk-40" target="5gWi30kBgXAaWxRzhCxk-34">
          <mxGeometry relative="1" as="geometry" />
        </mxCell>
        <mxCell id="5gWi30kBgXAaWxRzhCxk-49" style="edgeStyle=orthogonalEdgeStyle;rounded=0;orthogonalLoop=1;jettySize=auto;html=1;entryX=0.75;entryY=1;entryDx=0;entryDy=0;exitX=0.25;exitY=0;exitDx=0;exitDy=0;" edge="1" parent="WIyWlLk6GJQsqaUBKTNV-1" source="5gWi30kBgXAaWxRzhCxk-47" target="5gWi30kBgXAaWxRzhCxk-40">
          <mxGeometry relative="1" as="geometry">
            <mxPoint x="690" y="340" as="sourcePoint" />
            <Array as="points">
              <mxPoint x="690" y="370" />
              <mxPoint x="670" y="370" />
              <mxPoint x="670" y="130" />
            </Array>
          </mxGeometry>
        </mxCell>
        <mxCell id="5gWi30kBgXAaWxRzhCxk-50" value="Trigger" style="edgeLabel;html=1;align=center;verticalAlign=middle;resizable=0;points=[];" vertex="1" connectable="0" parent="5gWi30kBgXAaWxRzhCxk-49">
          <mxGeometry x="-0.3453" y="-2" relative="1" as="geometry">
            <mxPoint as="offset" />
          </mxGeometry>
        </mxCell>
        <mxCell id="5gWi30kBgXAaWxRzhCxk-47" value="&lt;div&gt;UI: Generate invoice doc&lt;/div&gt;&lt;div&gt;&lt;br&gt;&lt;/div&gt;&lt;div&gt;button: no input&lt;br&gt;&lt;/div&gt;" style="html=1;dashed=0;whiteSpace=wrap;" vertex="1" parent="WIyWlLk6GJQsqaUBKTNV-1">
          <mxGeometry x="660" y="390" width="120" height="100" as="geometry" />
        </mxCell>
        <mxCell id="5gWi30kBgXAaWxRzhCxk-51" value="UI: Doc, Readonly" style="whiteSpace=wrap;html=1;aspect=fixed;" vertex="1" parent="WIyWlLk6GJQsqaUBKTNV-1">
          <mxGeometry x="60" y="550" width="130" height="130" as="geometry" />
        </mxCell>
      </root>
    </mxGraphModel>
  </diagram>
</mxfile>
